<mxfile host="app.diagrams.net" agent="Mozilla/5.0 (Windows NT 10.0; Win64; x64) AppleWebKit/537.36 (KHTML, like Gecko) Chrome/134.0.0.0 Safari/537.36" version="26.1.1">
  <diagram name="Page-1" id="dA9ISIGSVP2RbJfilWr2">
    <mxGraphModel dx="1034" dy="458" grid="1" gridSize="10" guides="1" tooltips="1" connect="1" arrows="1" fold="1" page="1" pageScale="1" pageWidth="850" pageHeight="1100" math="0" shadow="0">
      <root>
        <mxCell id="0" />
        <mxCell id="1" parent="0" />
        <mxCell id="lMMEnAEBY7Rnv78QAGbO-5" style="edgeStyle=orthogonalEdgeStyle;rounded=0;orthogonalLoop=1;jettySize=auto;html=1;entryX=0.25;entryY=0;entryDx=0;entryDy=0;exitX=0.5;exitY=1;exitDx=0;exitDy=0;" parent="1" source="lMMEnAEBY7Rnv78QAGbO-41" target="lMMEnAEBY7Rnv78QAGbO-4" edge="1">
          <mxGeometry relative="1" as="geometry">
            <mxPoint x="250" y="90" as="sourcePoint" />
            <mxPoint x="230" y="160" as="targetPoint" />
            <Array as="points">
              <mxPoint x="360" y="110" />
              <mxPoint x="210" y="110" />
            </Array>
          </mxGeometry>
        </mxCell>
        <mxCell id="lMMEnAEBY7Rnv78QAGbO-6" style="edgeStyle=orthogonalEdgeStyle;rounded=0;orthogonalLoop=1;jettySize=auto;html=1;exitX=0.25;exitY=1;exitDx=0;exitDy=0;entryX=0.25;entryY=0;entryDx=0;entryDy=0;" parent="1" source="lMMEnAEBY7Rnv78QAGbO-2" target="lMMEnAEBY7Rnv78QAGbO-3" edge="1">
          <mxGeometry relative="1" as="geometry">
            <mxPoint x="120" y="160" as="targetPoint" />
            <Array as="points">
              <mxPoint x="70" y="70" />
            </Array>
          </mxGeometry>
        </mxCell>
        <mxCell id="lMMEnAEBY7Rnv78QAGbO-2" value="Power Source 1: Laptop" style="rounded=1;whiteSpace=wrap;html=1;" parent="1" vertex="1">
          <mxGeometry x="30" y="10" width="120" height="60" as="geometry" />
        </mxCell>
        <mxCell id="P1vxrx1TQENAgPRz93mc-3" style="edgeStyle=orthogonalEdgeStyle;rounded=0;orthogonalLoop=1;jettySize=auto;html=1;exitX=0.5;exitY=0;exitDx=0;exitDy=0;entryX=0.75;entryY=0;entryDx=0;entryDy=0;shape=flexArrow;fillColor=#FFFFCC;" edge="1" parent="1" source="lMMEnAEBY7Rnv78QAGbO-3" target="lMMEnAEBY7Rnv78QAGbO-7">
          <mxGeometry relative="1" as="geometry">
            <Array as="points">
              <mxPoint x="100" y="170" />
              <mxPoint x="740" y="170" />
            </Array>
          </mxGeometry>
        </mxCell>
        <mxCell id="P1vxrx1TQENAgPRz93mc-4" style="edgeStyle=orthogonalEdgeStyle;rounded=0;orthogonalLoop=1;jettySize=auto;html=1;exitX=0.75;exitY=0;exitDx=0;exitDy=0;entryX=0.25;entryY=0;entryDx=0;entryDy=0;shape=flexArrow;fillColor=#FFFFCC;" edge="1" parent="1" source="lMMEnAEBY7Rnv78QAGbO-3" target="lMMEnAEBY7Rnv78QAGbO-19">
          <mxGeometry relative="1" as="geometry" />
        </mxCell>
        <mxCell id="lMMEnAEBY7Rnv78QAGbO-3" value="ATMega328PB" style="rounded=0;whiteSpace=wrap;html=1;" parent="1" vertex="1">
          <mxGeometry x="40" y="220" width="120" height="60" as="geometry" />
        </mxCell>
        <mxCell id="lMMEnAEBY7Rnv78QAGbO-39" style="edgeStyle=orthogonalEdgeStyle;rounded=0;orthogonalLoop=1;jettySize=auto;html=1;exitX=1;exitY=0.25;exitDx=0;exitDy=0;entryX=0;entryY=0.25;entryDx=0;entryDy=0;" parent="1" source="lMMEnAEBY7Rnv78QAGbO-4" target="lMMEnAEBY7Rnv78QAGbO-16" edge="1">
          <mxGeometry relative="1" as="geometry" />
        </mxCell>
        <mxCell id="lMMEnAEBY7Rnv78QAGbO-4" value="Raspberry Pi" style="rounded=0;whiteSpace=wrap;html=1;" parent="1" vertex="1">
          <mxGeometry x="180" y="220" width="120" height="60" as="geometry" />
        </mxCell>
        <mxCell id="lMMEnAEBY7Rnv78QAGbO-11" style="edgeStyle=orthogonalEdgeStyle;rounded=0;orthogonalLoop=1;jettySize=auto;html=1;exitX=0.5;exitY=1;exitDx=0;exitDy=0;" parent="1" source="lMMEnAEBY7Rnv78QAGbO-7" target="lMMEnAEBY7Rnv78QAGbO-8" edge="1">
          <mxGeometry relative="1" as="geometry" />
        </mxCell>
        <mxCell id="lMMEnAEBY7Rnv78QAGbO-7" value="(x3) Stepper Motor Drivers (24V, 2A)" style="rounded=0;whiteSpace=wrap;html=1;" parent="1" vertex="1">
          <mxGeometry x="650" y="220" width="120" height="60" as="geometry" />
        </mxCell>
        <mxCell id="P1vxrx1TQENAgPRz93mc-14" style="edgeStyle=orthogonalEdgeStyle;rounded=0;orthogonalLoop=1;jettySize=auto;html=1;exitX=0;exitY=0.75;exitDx=0;exitDy=0;entryX=1;entryY=1;entryDx=0;entryDy=0;shape=flexArrow;fillColor=#FFFFCC;" edge="1" parent="1" source="lMMEnAEBY7Rnv78QAGbO-8" target="lMMEnAEBY7Rnv78QAGbO-3">
          <mxGeometry relative="1" as="geometry" />
        </mxCell>
        <mxCell id="lMMEnAEBY7Rnv78QAGbO-8" value="(x3) Stepper Motors with Encoders" style="rounded=0;whiteSpace=wrap;html=1;" parent="1" vertex="1">
          <mxGeometry x="650" y="340" width="120" height="60" as="geometry" />
        </mxCell>
        <mxCell id="lMMEnAEBY7Rnv78QAGbO-12" value="(x1) Brush Motor with Encoders" style="rounded=0;whiteSpace=wrap;html=1;" parent="1" vertex="1">
          <mxGeometry x="510" y="310" width="120" height="60" as="geometry" />
        </mxCell>
        <mxCell id="P1vxrx1TQENAgPRz93mc-15" style="edgeStyle=orthogonalEdgeStyle;rounded=0;orthogonalLoop=1;jettySize=auto;html=1;exitX=0;exitY=0.75;exitDx=0;exitDy=0;entryX=1;entryY=0.75;entryDx=0;entryDy=0;shape=flexArrow;fillColor=#FFFFCC;" edge="1" parent="1" source="lMMEnAEBY7Rnv78QAGbO-16" target="lMMEnAEBY7Rnv78QAGbO-4">
          <mxGeometry relative="1" as="geometry" />
        </mxCell>
        <mxCell id="lMMEnAEBY7Rnv78QAGbO-16" value="Camera" style="rounded=0;whiteSpace=wrap;html=1;" parent="1" vertex="1">
          <mxGeometry x="360" y="220" width="120" height="60" as="geometry" />
        </mxCell>
        <mxCell id="lMMEnAEBY7Rnv78QAGbO-21" style="edgeStyle=orthogonalEdgeStyle;rounded=0;orthogonalLoop=1;jettySize=auto;html=1;exitX=0.5;exitY=1;exitDx=0;exitDy=0;" parent="1" source="lMMEnAEBY7Rnv78QAGbO-19" target="lMMEnAEBY7Rnv78QAGbO-12" edge="1">
          <mxGeometry relative="1" as="geometry" />
        </mxCell>
        <mxCell id="lMMEnAEBY7Rnv78QAGbO-19" value="(x1) Brush Motor Drivers (24V, 3A)" style="rounded=0;whiteSpace=wrap;html=1;" parent="1" vertex="1">
          <mxGeometry x="510" y="220" width="120" height="60" as="geometry" />
        </mxCell>
        <mxCell id="P1vxrx1TQENAgPRz93mc-12" style="edgeStyle=orthogonalEdgeStyle;rounded=0;orthogonalLoop=1;jettySize=auto;html=1;exitX=0.25;exitY=0;exitDx=0;exitDy=0;entryX=0.25;entryY=1;entryDx=0;entryDy=0;shape=flexArrow;fillColor=#FFFFCC;" edge="1" parent="1" source="lMMEnAEBY7Rnv78QAGbO-25" target="lMMEnAEBY7Rnv78QAGbO-3">
          <mxGeometry relative="1" as="geometry" />
        </mxCell>
        <mxCell id="lMMEnAEBY7Rnv78QAGbO-25" value="Start, Pause, Resume Button" style="rounded=0;whiteSpace=wrap;html=1;" parent="1" vertex="1">
          <mxGeometry x="40" y="440" width="120" height="60" as="geometry" />
        </mxCell>
        <mxCell id="P1vxrx1TQENAgPRz93mc-13" style="edgeStyle=orthogonalEdgeStyle;rounded=0;orthogonalLoop=1;jettySize=auto;html=1;exitX=0;exitY=0;exitDx=0;exitDy=0;entryX=0.5;entryY=1;entryDx=0;entryDy=0;shape=flexArrow;fillColor=#FFFFCC;" edge="1" parent="1" source="lMMEnAEBY7Rnv78QAGbO-26" target="lMMEnAEBY7Rnv78QAGbO-3">
          <mxGeometry relative="1" as="geometry">
            <Array as="points">
              <mxPoint x="180" y="410" />
              <mxPoint x="100" y="410" />
            </Array>
          </mxGeometry>
        </mxCell>
        <mxCell id="lMMEnAEBY7Rnv78QAGbO-26" value="Killswitch Button" style="rounded=0;whiteSpace=wrap;html=1;" parent="1" vertex="1">
          <mxGeometry x="180" y="440" width="120" height="60" as="geometry" />
        </mxCell>
        <mxCell id="lMMEnAEBY7Rnv78QAGbO-29" value="" style="endArrow=classic;html=1;rounded=0;" parent="1" edge="1">
          <mxGeometry width="50" height="50" relative="1" as="geometry">
            <mxPoint x="677.5" y="510" as="sourcePoint" />
            <mxPoint x="747.5" y="510" as="targetPoint" />
          </mxGeometry>
        </mxCell>
        <mxCell id="lMMEnAEBY7Rnv78QAGbO-33" value="Power Flow" style="text;html=1;align=center;verticalAlign=middle;resizable=0;points=[];autosize=1;strokeColor=none;fillColor=none;" parent="1" vertex="1">
          <mxGeometry x="667.5" y="470" width="90" height="30" as="geometry" />
        </mxCell>
        <mxCell id="lMMEnAEBY7Rnv78QAGbO-34" value="Data Transfer" style="text;html=1;align=center;verticalAlign=middle;resizable=0;points=[];autosize=1;strokeColor=none;fillColor=none;" parent="1" vertex="1">
          <mxGeometry x="667.5" y="410" width="100" height="30" as="geometry" />
        </mxCell>
        <mxCell id="lMMEnAEBY7Rnv78QAGbO-43" style="edgeStyle=orthogonalEdgeStyle;rounded=0;orthogonalLoop=1;jettySize=auto;html=1;exitX=0.25;exitY=1;exitDx=0;exitDy=0;entryX=0.5;entryY=0;entryDx=0;entryDy=0;" parent="1" source="lMMEnAEBY7Rnv78QAGbO-38" target="lMMEnAEBY7Rnv78QAGbO-19" edge="1">
          <mxGeometry relative="1" as="geometry" />
        </mxCell>
        <mxCell id="lMMEnAEBY7Rnv78QAGbO-44" style="edgeStyle=orthogonalEdgeStyle;rounded=0;orthogonalLoop=1;jettySize=auto;html=1;exitX=0.75;exitY=1;exitDx=0;exitDy=0;entryX=0.5;entryY=0;entryDx=0;entryDy=0;" parent="1" source="lMMEnAEBY7Rnv78QAGbO-38" target="lMMEnAEBY7Rnv78QAGbO-7" edge="1">
          <mxGeometry relative="1" as="geometry" />
        </mxCell>
        <mxCell id="lMMEnAEBY7Rnv78QAGbO-55" style="edgeStyle=orthogonalEdgeStyle;rounded=0;orthogonalLoop=1;jettySize=auto;html=1;exitX=0.75;exitY=1;exitDx=0;exitDy=0;entryX=0;entryY=0.25;entryDx=0;entryDy=0;" parent="1" source="lMMEnAEBY7Rnv78QAGbO-41" target="lMMEnAEBY7Rnv78QAGbO-38" edge="1">
          <mxGeometry relative="1" as="geometry" />
        </mxCell>
        <mxCell id="lMMEnAEBY7Rnv78QAGbO-41" value="Power Source 2" style="rounded=1;whiteSpace=wrap;html=1;" parent="1" vertex="1">
          <mxGeometry x="300" y="10" width="120" height="60" as="geometry" />
        </mxCell>
        <mxCell id="lMMEnAEBY7Rnv78QAGbO-38" value="Voltage Regulator (24V, 15 A)" style="rounded=0;whiteSpace=wrap;html=1;" parent="1" vertex="1">
          <mxGeometry x="570" y="90" width="120" height="60" as="geometry" />
        </mxCell>
        <mxCell id="lMMEnAEBY7Rnv78QAGbO-49" value="I2C: Step signal, direction of rotation&amp;nbsp;" style="text;html=1;align=center;verticalAlign=middle;whiteSpace=wrap;rounded=0;" parent="1" vertex="1">
          <mxGeometry x="300" y="140" width="200" height="30" as="geometry" />
        </mxCell>
        <mxCell id="lMMEnAEBY7Rnv78QAGbO-50" value="PWM controls speed, direction of rotation" style="text;html=1;align=center;verticalAlign=middle;whiteSpace=wrap;rounded=0;" parent="1" vertex="1">
          <mxGeometry x="280" y="170" width="230" height="30" as="geometry" />
        </mxCell>
        <mxCell id="lMMEnAEBY7Rnv78QAGbO-52" value="I2C: Direction of rotation, step count, speed" style="text;html=1;align=center;verticalAlign=middle;whiteSpace=wrap;rounded=0;" parent="1" vertex="1">
          <mxGeometry x="290" y="390" width="250" height="30" as="geometry" />
        </mxCell>
        <mxCell id="lMMEnAEBY7Rnv78QAGbO-53" value="I2C: Angular displacement, motor current" style="text;html=1;align=center;verticalAlign=middle;whiteSpace=wrap;rounded=0;" parent="1" vertex="1">
          <mxGeometry x="250" y="310" width="250" height="30" as="geometry" />
        </mxCell>
        <mxCell id="P1vxrx1TQENAgPRz93mc-10" value="" style="endArrow=classic;html=1;rounded=0;shape=flexArrow;fillColor=#FFFFCC;" edge="1" parent="1">
          <mxGeometry width="50" height="50" relative="1" as="geometry">
            <mxPoint x="665" y="449.5" as="sourcePoint" />
            <mxPoint x="770" y="449.5" as="targetPoint" />
          </mxGeometry>
        </mxCell>
        <mxCell id="P1vxrx1TQENAgPRz93mc-11" style="edgeStyle=orthogonalEdgeStyle;rounded=0;orthogonalLoop=1;jettySize=auto;html=1;exitX=0;exitY=0.5;exitDx=0;exitDy=0;entryX=0.75;entryY=1;entryDx=0;entryDy=0;shape=flexArrow;fillColor=#FFFFCC;" edge="1" parent="1" source="lMMEnAEBY7Rnv78QAGbO-12" target="lMMEnAEBY7Rnv78QAGbO-3">
          <mxGeometry relative="1" as="geometry" />
        </mxCell>
        <mxCell id="P1vxrx1TQENAgPRz93mc-17" value="USB" style="text;html=1;align=center;verticalAlign=middle;whiteSpace=wrap;rounded=0;" vertex="1" parent="1">
          <mxGeometry x="300" y="280" width="60" height="30" as="geometry" />
        </mxCell>
        <mxCell id="P1vxrx1TQENAgPRz93mc-19" value="Pin change interrupt" style="text;html=1;align=center;verticalAlign=middle;whiteSpace=wrap;rounded=0;" vertex="1" parent="1">
          <mxGeometry x="170" y="410" width="150" height="30" as="geometry" />
        </mxCell>
        <mxCell id="P1vxrx1TQENAgPRz93mc-20" value="Pin change interrupt" style="text;html=1;align=center;verticalAlign=middle;whiteSpace=wrap;rounded=0;" vertex="1" parent="1">
          <mxGeometry x="10" y="360" width="50" height="30" as="geometry" />
        </mxCell>
      </root>
    </mxGraphModel>
  </diagram>
</mxfile>
